<svg 
 xmlns="http://www.w3.org/2000/svg"
 xmlns:xlink="http://www.w3.org/1999/xlink"
 width="53px" height="46px">
<defs>
<linearGradient id="PSgrad_0" x1="0%" x2="85.717%" y1="0%" y2="51.504%">
  <stop offset="0%" stop-color="rgb(50,194,241)" stop-opacity="1" />
  <stop offset="100%" stop-color="rgb(129,249,208)" stop-opacity="1" />
</linearGradient>

</defs>
<path fill-rule="evenodd"  fill="rgb(255, 255, 255)"
 d="M51.895,45.776 C51.600,45.926 51.280,46.000 50.960,46.000 C50.544,46.000 50.130,45.874 49.778,45.627 L38.913,38.007 L10.410,38.007 C4.670,38.007 -0.000,33.398 -0.000,27.732 L-0.000,10.275 C-0.000,4.609 4.670,-0.000 10.410,-0.000 L42.564,-0.000 C48.304,-0.000 52.974,4.609 52.974,10.275 L52.974,24.038 C52.991,24.141 53.000,24.247 53.000,24.354 L53.000,43.986 C53.000,44.740 52.574,45.430 51.895,45.776 ZM48.920,24.701 C48.903,24.595 48.894,24.489 48.894,24.380 L48.894,10.275 C48.894,6.830 46.055,4.027 42.564,4.027 L10.410,4.027 C6.920,4.027 4.080,6.830 4.080,10.275 L4.080,27.732 C4.080,31.177 6.920,33.980 10.410,33.980 L39.565,33.980 C39.988,33.980 40.402,34.109 40.746,34.352 L48.920,40.085 L48.920,24.701 ZM38.882,25.687 L34.999,21.854 L34.252,22.591 C33.505,23.181 32.908,23.623 32.310,24.213 C30.667,25.539 28.577,26.276 26.486,26.276 C24.395,26.276 22.304,25.539 20.661,24.213 C19.914,23.770 19.466,23.181 18.720,22.591 L17.973,22.001 L14.090,25.981 C13.492,26.718 12.148,26.718 11.401,25.981 C10.953,25.687 10.804,25.097 10.804,24.655 C10.804,24.213 11.103,23.623 11.401,23.328 L15.285,19.496 L8.713,13.747 C7.966,13.157 7.817,12.125 8.265,11.241 C8.713,10.356 9.908,10.062 10.804,10.504 L10.953,10.651 C10.953,10.799 11.103,10.799 11.252,10.946 L21.557,19.938 C22.155,20.527 22.603,20.970 23.200,21.412 C24.245,22.149 25.291,22.591 26.486,22.591 L26.784,22.591 C27.979,22.591 29.025,22.149 30.070,21.412 C30.518,20.970 31.115,20.527 31.713,19.938 L42.167,10.946 C42.167,10.799 42.317,10.799 42.466,10.651 C42.914,10.504 43.213,10.356 43.511,10.356 C44.109,10.356 44.856,10.651 45.154,11.241 C45.602,12.125 45.453,13.157 44.408,13.599 L37.836,19.348 L41.570,23.033 C42.018,23.328 42.167,23.918 42.167,24.360 C42.167,24.802 41.869,25.392 41.570,25.687 C40.973,26.424 39.628,26.424 38.882,25.687 Z"/>
<path fill="url(#PSgrad_0)"
 d="M51.895,45.776 C51.600,45.926 51.280,46.000 50.960,46.000 C50.544,46.000 50.130,45.874 49.778,45.627 L38.913,38.007 L10.410,38.007 C4.670,38.007 -0.000,33.398 -0.000,27.732 L-0.000,10.275 C-0.000,4.609 4.670,-0.000 10.410,-0.000 L42.564,-0.000 C48.304,-0.000 52.974,4.609 52.974,10.275 L52.974,24.038 C52.991,24.141 53.000,24.247 53.000,24.354 L53.000,43.986 C53.000,44.740 52.574,45.430 51.895,45.776 ZM48.920,24.701 C48.903,24.595 48.894,24.489 48.894,24.380 L48.894,10.275 C48.894,6.830 46.055,4.027 42.564,4.027 L10.410,4.027 C6.920,4.027 4.080,6.830 4.080,10.275 L4.080,27.732 C4.080,31.177 6.920,33.980 10.410,33.980 L39.565,33.980 C39.988,33.980 40.402,34.109 40.746,34.352 L48.920,40.085 L48.920,24.701 ZM38.882,25.687 L34.999,21.854 L34.252,22.591 C33.505,23.181 32.908,23.623 32.310,24.213 C30.667,25.539 28.577,26.276 26.486,26.276 C24.395,26.276 22.304,25.539 20.661,24.213 C19.914,23.770 19.466,23.181 18.720,22.591 L17.973,22.001 L14.090,25.981 C13.492,26.718 12.148,26.718 11.401,25.981 C10.953,25.687 10.804,25.097 10.804,24.655 C10.804,24.213 11.103,23.623 11.401,23.328 L15.285,19.496 L8.713,13.747 C7.966,13.157 7.817,12.125 8.265,11.241 C8.713,10.356 9.908,10.062 10.804,10.504 L10.953,10.651 C10.953,10.799 11.103,10.799 11.252,10.946 L21.557,19.938 C22.155,20.527 22.603,20.970 23.200,21.412 C24.245,22.149 25.291,22.591 26.486,22.591 L26.784,22.591 C27.979,22.591 29.025,22.149 30.070,21.412 C30.518,20.970 31.115,20.527 31.713,19.938 L42.167,10.946 C42.167,10.799 42.317,10.799 42.466,10.651 C42.914,10.504 43.213,10.356 43.511,10.356 C44.109,10.356 44.856,10.651 45.154,11.241 C45.602,12.125 45.453,13.157 44.408,13.599 L37.836,19.348 L41.570,23.033 C42.018,23.328 42.167,23.918 42.167,24.360 C42.167,24.802 41.869,25.392 41.570,25.687 C40.973,26.424 39.628,26.424 38.882,25.687 Z"/>
</svg>