<svg 
 xmlns="http://www.w3.org/2000/svg"
 xmlns:xlink="http://www.w3.org/1999/xlink"
 width="140px" height="142px">
<path fill-rule="evenodd"  fill="rgb(51, 54, 59)"
 d="M135.060,69.335 C133.357,71.656 131.597,74.056 130.003,76.469 C129.714,76.906 129.225,77.168 128.701,77.168 C128.110,77.149 127.616,76.853 127.347,76.384 C126.895,75.594 126.453,74.798 126.012,74.004 C125.672,73.391 125.336,72.788 125.000,72.193 C122.084,73.793 119.266,75.595 116.541,77.342 C114.877,78.407 113.158,79.500 111.417,80.555 C111.350,81.795 111.299,83.040 111.258,84.259 C111.215,85.537 111.172,86.816 111.103,88.095 C111.076,88.582 110.821,89.028 110.413,89.300 C109.615,89.831 108.815,90.358 108.016,90.886 C105.250,92.711 102.391,94.598 99.702,96.564 C99.429,96.763 99.104,96.864 98.780,96.864 C98.505,96.864 98.229,96.792 97.983,96.646 C97.445,96.328 97.151,95.721 97.236,95.103 C97.503,93.171 97.581,91.135 97.644,89.151 C96.279,88.930 94.931,88.635 93.618,88.347 C92.818,88.171 92.017,87.995 91.210,87.836 C90.605,87.717 90.127,87.252 89.993,86.652 C89.858,86.052 90.094,85.430 90.592,85.067 C92.406,83.741 94.278,82.447 96.089,81.196 C98.062,79.834 100.101,78.425 102.043,76.989 C102.380,76.739 102.801,76.636 103.221,76.703 C105.743,77.108 107.974,77.368 110.039,77.498 C110.143,77.505 110.235,77.550 110.334,77.577 C111.861,76.640 113.380,75.679 114.854,74.735 C117.599,72.976 120.440,71.165 123.420,69.525 C122.904,68.694 122.374,67.875 121.801,67.085 C121.476,66.637 121.415,66.051 121.641,65.547 C121.867,65.042 122.346,64.695 122.897,64.636 C127.103,64.187 131.568,63.573 136.547,62.758 C137.167,62.655 137.786,62.937 138.120,63.465 C138.452,63.994 138.434,64.670 138.072,65.181 C137.086,66.572 136.074,67.953 135.060,69.335 ZM103.374,79.865 C101.556,81.195 99.682,82.489 97.866,83.743 C97.013,84.332 96.147,84.930 95.281,85.536 C96.691,85.840 98.050,86.111 99.425,86.269 C100.231,86.362 100.831,87.055 100.803,87.862 L100.771,88.849 C100.737,89.917 100.703,91.002 100.641,92.091 C102.521,90.793 104.428,89.534 106.294,88.303 C106.873,87.921 107.452,87.538 108.031,87.155 C108.078,86.155 108.111,85.155 108.145,84.155 C108.185,82.948 108.227,81.713 108.292,80.474 C106.756,80.337 105.132,80.136 103.374,79.865 ZM125.788,67.429 C126.845,69.097 127.803,70.821 128.738,72.504 C128.768,72.557 128.798,72.611 128.827,72.664 C130.046,70.912 131.310,69.190 132.544,67.507 C132.815,67.138 133.086,66.769 133.355,66.399 C130.710,66.799 128.201,67.141 125.788,67.429 ZM124.457,61.230 C124.406,61.235 124.357,61.237 124.307,61.237 C123.514,61.237 122.836,60.636 122.758,59.833 C122.707,59.291 122.705,58.571 122.702,57.658 C122.684,50.853 122.643,34.916 102.375,34.916 C100.940,34.916 99.472,34.966 98.052,35.014 C96.937,35.051 95.799,35.083 94.677,35.097 C94.832,39.085 94.980,43.131 95.037,47.134 C95.048,47.903 94.489,48.564 93.725,48.686 C89.068,49.430 80.014,49.965 71.016,50.337 C71.030,56.393 71.318,62.566 71.601,68.543 C71.760,71.929 71.925,75.429 72.039,78.872 C72.067,79.728 71.393,80.445 70.481,80.473 C69.644,80.473 68.953,79.812 68.925,78.974 C68.813,75.553 68.648,72.063 68.488,68.689 C68.206,62.716 67.920,56.547 67.902,50.460 C64.205,50.599 60.612,50.710 57.428,50.797 C57.449,50.887 57.490,50.969 57.495,51.065 L57.518,51.586 C57.554,52.441 56.885,53.164 56.026,53.199 C56.004,53.200 55.982,53.200 55.961,53.200 C55.130,53.200 54.439,52.548 54.405,51.714 L54.384,51.211 C54.378,51.093 54.415,50.987 54.435,50.876 C49.358,51.002 45.892,51.058 45.791,51.058 C44.456,51.058 43.238,51.019 42.068,50.941 C41.301,50.889 40.688,50.290 40.621,49.529 C40.328,46.191 39.874,40.728 39.424,35.032 C38.413,35.180 37.408,35.324 36.437,35.461 C20.983,37.640 12.470,38.841 12.470,56.900 C12.470,59.498 12.616,62.144 12.758,64.703 L12.869,66.764 C12.871,66.785 12.860,66.803 12.861,66.824 C17.020,67.385 22.285,70.944 22.285,77.919 C22.285,82.027 20.579,85.577 17.939,87.661 C18.773,91.463 19.919,92.304 21.134,93.160 C23.223,94.633 24.703,96.155 24.725,102.345 C24.728,103.139 24.128,103.807 23.334,103.892 C18.469,104.414 13.502,104.831 8.700,105.236 C6.479,105.423 4.256,105.611 2.033,105.808 C1.987,105.812 1.940,105.814 1.893,105.814 C1.211,105.814 0.599,105.368 0.402,104.706 C0.018,103.425 0.001,100.646 0.001,100.618 C0.001,93.942 3.664,92.333 6.089,91.268 C7.842,90.498 8.128,90.250 8.128,89.501 C8.128,89.338 8.120,89.172 8.113,89.006 C8.104,88.794 8.095,88.581 8.095,88.371 C8.095,88.338 8.112,88.310 8.114,88.277 C5.193,86.368 2.891,82.558 2.891,77.641 C2.891,72.788 5.293,68.793 9.159,67.214 C9.358,67.133 9.576,67.092 9.785,67.031 C9.780,66.993 9.760,66.961 9.758,66.923 L9.648,64.874 C9.504,62.273 9.354,59.583 9.354,56.900 C9.354,36.149 20.531,34.572 36.000,32.391 C37.034,32.245 38.101,32.093 39.182,31.935 C38.539,23.631 37.966,15.553 37.966,13.486 C37.966,12.447 37.982,11.407 38.013,10.367 C38.038,9.528 38.728,8.863 39.570,8.863 C40.508,8.872 41.429,8.877 42.352,8.877 C52.503,8.877 64.673,8.485 78.513,7.718 C80.061,3.580 83.608,0.179 88.648,0.022 C88.839,0.016 89.032,0.013 89.224,0.013 C96.987,0.013 102.203,4.843 102.203,12.031 C102.203,16.109 99.652,21.756 94.262,23.802 C94.348,26.534 94.452,29.267 94.560,31.998 C95.660,31.986 96.774,31.955 97.946,31.915 C99.392,31.867 100.887,31.816 102.375,31.816 C125.750,31.816 125.801,51.260 125.817,57.650 C125.820,58.449 125.821,59.140 125.860,59.540 C125.942,60.392 125.313,61.148 124.457,61.230 ZM7.358,94.300 C7.291,94.268 7.249,94.213 7.189,94.174 C5.073,95.106 3.116,96.075 3.116,100.618 C3.116,101.070 3.149,101.879 3.210,102.593 C4.953,102.441 6.696,102.294 8.438,102.147 C12.753,101.784 17.202,101.409 21.577,100.959 C21.397,97.146 20.512,96.522 19.333,95.690 C18.725,95.262 18.146,94.808 17.602,94.234 C16.159,95.089 14.482,95.536 12.669,95.536 C10.902,95.536 9.065,95.108 7.358,94.300 ZM15.915,91.618 C15.616,90.933 15.340,90.138 15.095,89.186 C14.228,89.469 13.313,89.630 12.359,89.630 C11.988,89.630 11.614,89.587 11.241,89.525 C11.236,90.641 10.889,91.468 10.377,92.110 C11.144,92.317 11.917,92.436 12.669,92.436 C13.869,92.436 14.970,92.153 15.915,91.618 ZM12.359,86.530 C15.707,86.530 19.169,83.309 19.169,77.919 C19.169,75.796 18.556,74.182 17.663,72.967 C12.348,74.797 8.676,77.435 6.769,80.822 C6.705,80.937 6.624,81.037 6.537,81.129 C7.659,84.631 10.352,86.530 12.359,86.530 ZM10.341,70.082 C7.917,71.073 6.374,73.439 6.071,76.516 C8.199,74.138 11.157,72.181 14.920,70.673 C13.753,70.088 12.576,69.835 11.719,69.835 C11.208,69.835 10.745,69.918 10.341,70.082 ZM45.791,47.957 C46.096,47.957 77.228,47.459 90.486,45.986 C89.447,44.943 88.752,44.150 87.984,43.270 C86.205,41.232 83.763,38.439 74.669,29.979 C72.358,32.121 70.009,34.351 68.213,36.151 C67.911,36.456 67.510,36.610 67.108,36.610 C66.761,36.610 66.414,36.496 66.127,36.264 C64.042,34.581 61.732,32.646 59.362,30.614 C54.918,35.695 50.260,41.248 44.829,47.940 C45.151,47.945 45.454,47.957 45.791,47.957 ZM91.818,42.893 C91.723,39.396 91.596,35.886 91.459,32.455 C91.354,29.808 91.257,27.160 91.171,24.513 C90.744,24.555 90.310,24.586 89.857,24.586 C87.535,24.586 85.153,23.822 83.112,22.463 C82.337,23.052 79.851,25.238 76.964,27.870 C86.036,36.317 88.523,39.160 90.336,41.237 C90.839,41.813 91.290,42.329 91.818,42.893 ZM41.096,14.172 C41.240,18.561 42.505,34.782 43.346,44.832 C48.405,38.622 52.798,33.397 57.009,28.581 C50.806,23.191 44.555,17.491 41.096,14.172 ZM77.637,12.455 C77.637,11.926 77.681,11.394 77.746,10.864 C64.653,11.577 53.075,11.950 43.290,11.973 C48.216,16.701 58.967,26.402 67.005,32.975 C71.410,28.650 78.282,22.415 80.709,20.410 C78.850,18.355 77.637,15.634 77.637,12.455 ZM99.087,12.031 C99.087,6.530 95.307,3.113 89.224,3.113 C89.064,3.113 88.906,3.115 88.748,3.120 C83.809,3.274 80.752,8.086 80.752,12.455 C80.752,18.270 86.137,21.486 89.857,21.486 C96.763,21.486 99.087,14.993 99.087,12.031 ZM87.902,13.863 C85.797,13.863 84.224,12.226 84.224,10.762 C84.224,8.478 86.783,4.979 89.937,4.979 C91.815,4.979 93.908,7.220 93.908,10.435 C93.908,11.562 93.710,12.693 93.519,13.786 C93.351,14.739 93.193,15.640 93.193,16.400 C93.193,16.511 93.197,16.621 93.204,16.728 C93.265,17.582 92.618,18.323 91.760,18.383 C91.722,18.387 91.686,18.388 91.648,18.388 C90.838,18.388 90.155,17.763 90.097,16.947 C90.084,16.768 90.077,16.585 90.077,16.400 C90.077,15.371 90.266,14.294 90.449,13.253 C89.638,13.608 88.758,13.863 87.902,13.863 ZM90.623,9.276 C90.407,8.588 90.035,8.195 89.837,8.083 C88.700,8.173 87.556,9.771 87.367,10.561 C87.467,10.649 87.652,10.763 87.902,10.763 C88.678,10.763 89.871,10.096 90.623,9.276 ZM18.782,124.804 C20.568,124.876 22.365,124.873 24.163,124.815 C24.161,124.624 24.154,124.435 24.154,124.242 C24.154,122.766 24.208,121.404 24.319,120.078 C24.391,119.224 25.146,118.585 26.002,118.662 C26.859,118.733 27.496,119.483 27.425,120.336 C27.320,121.576 27.269,122.854 27.269,124.242 C27.269,124.380 27.275,124.516 27.276,124.653 C28.428,124.568 29.579,124.466 30.726,124.329 C31.583,124.230 32.354,124.834 32.458,125.683 C32.560,126.534 31.951,127.305 31.097,127.407 C29.860,127.555 28.615,127.651 27.371,127.740 C27.443,129.120 27.542,130.450 27.643,131.655 C27.714,132.508 27.077,133.256 26.220,133.328 C26.175,133.332 26.131,133.333 26.088,133.333 C25.287,133.333 24.605,132.721 24.537,131.912 C24.434,130.676 24.332,129.312 24.259,127.889 C23.428,127.916 22.594,127.964 21.768,127.964 C20.731,127.964 19.694,127.943 18.658,127.903 C17.798,127.868 17.129,127.147 17.163,126.291 C17.198,125.436 17.927,124.776 18.782,124.804 ZM56.009,57.972 C56.879,57.977 57.572,58.675 57.567,59.531 L57.560,60.521 C57.552,61.372 56.856,62.057 56.002,62.057 C55.128,62.049 54.436,61.348 54.444,60.492 L54.452,59.512 C54.457,58.659 55.153,57.972 56.009,57.972 ZM56.132,66.830 C56.978,66.757 57.743,67.389 57.816,68.243 C57.845,68.563 57.875,68.881 57.908,69.196 C57.996,70.048 57.373,70.809 56.517,70.897 C56.464,70.902 56.410,70.905 56.356,70.905 C55.567,70.905 54.891,70.311 54.809,69.513 C54.774,69.181 54.742,68.845 54.713,68.507 C54.639,67.654 55.275,66.903 56.132,66.830 ZM57.371,75.597 C58.196,75.357 59.060,75.832 59.300,76.655 C59.387,76.958 59.480,77.256 59.575,77.550 C59.839,78.365 59.389,79.239 58.571,79.502 C58.412,79.553 58.251,79.577 58.092,79.577 C57.434,79.577 56.823,79.159 56.610,78.503 C56.504,78.179 56.404,77.850 56.306,77.516 C56.068,76.694 56.545,75.834 57.371,75.597 ZM62.236,87.349 C61.790,87.349 61.347,87.159 61.038,86.791 C60.811,86.520 60.591,86.243 60.377,85.959 C59.860,85.274 59.999,84.302 60.688,83.788 C61.374,83.274 62.352,83.412 62.868,84.097 C63.051,84.339 63.239,84.576 63.432,84.807 C63.982,85.464 63.893,86.441 63.232,86.989 C62.941,87.231 62.587,87.349 62.236,87.349 ZM69.332,92.534 C69.130,92.534 68.925,92.495 68.728,92.411 C68.397,92.273 68.075,92.127 67.757,91.975 C66.982,91.605 66.656,90.678 67.029,89.907 C67.400,89.136 68.330,88.810 69.108,89.182 C69.380,89.312 69.657,89.437 69.939,89.556 C70.732,89.889 71.103,90.798 70.768,91.587 C70.517,92.178 69.940,92.534 69.332,92.534 ZM77.848,94.487 C77.500,94.460 77.157,94.428 76.819,94.392 C75.964,94.302 75.344,93.538 75.435,92.687 C75.527,91.835 76.295,91.221 77.149,91.309 C77.457,91.342 77.772,91.372 78.089,91.396 C78.947,91.462 79.588,92.208 79.521,93.061 C79.458,93.874 78.776,94.491 77.971,94.491 C77.930,94.491 77.889,94.490 77.848,94.487 ZM64.717,129.578 C66.917,128.640 67.629,128.219 67.629,126.820 C67.629,126.665 67.618,126.508 67.602,126.353 C63.408,124.474 61.426,118.831 61.426,114.779 C61.426,111.993 62.232,109.413 63.757,107.316 C65.406,105.049 68.336,104.242 70.528,104.242 C75.528,104.242 80.924,108.479 80.924,115.324 C80.924,119.319 79.279,122.465 76.973,124.481 C77.001,124.599 77.045,124.711 77.045,124.837 C77.045,125.095 77.037,125.369 77.026,125.651 C77.018,125.915 77.009,126.187 77.009,126.459 C77.009,128.233 77.374,128.320 79.127,128.734 C81.583,129.317 85.295,130.196 86.069,137.783 C86.149,138.570 85.619,139.292 84.841,139.456 C75.335,141.453 67.235,141.987 63.948,141.987 C63.252,141.987 62.557,141.979 61.861,141.972 C61.174,141.964 60.489,141.957 59.800,141.957 L59.400,141.958 C58.613,141.958 57.951,141.382 57.849,140.611 C57.806,140.291 57.789,139.971 57.789,139.653 C57.789,132.529 61.958,130.753 64.717,129.578 ZM70.528,107.342 C68.819,107.342 67.230,107.988 66.400,108.996 C66.915,108.982 67.429,108.968 67.943,108.968 C71.032,108.968 73.766,109.526 76.486,110.727 C75.077,108.572 72.748,107.342 70.528,107.342 ZM77.808,115.324 C77.808,115.182 77.795,115.048 77.788,114.909 C74.526,112.919 71.578,112.068 67.943,112.068 C67.313,112.068 66.683,112.085 66.048,112.103 C65.670,112.113 65.282,112.117 64.899,112.124 C64.676,112.967 64.541,113.851 64.541,114.779 C64.541,117.958 66.325,123.896 70.623,123.896 C74.093,123.896 77.808,120.451 77.808,115.324 ZM73.896,126.351 C72.860,126.754 71.788,126.977 70.728,126.991 C70.706,127.853 70.522,128.569 70.228,129.172 C71.145,129.626 72.141,129.889 73.039,129.889 C73.636,129.889 74.161,129.765 74.626,129.544 C74.181,128.814 73.894,127.826 73.894,126.459 C73.894,126.423 73.896,126.387 73.896,126.351 ZM61.893,138.872 C62.579,138.879 63.262,138.886 63.948,138.886 C64.282,138.886 71.935,138.861 82.782,136.711 C82.070,132.619 80.358,132.213 78.405,131.750 C78.067,131.670 77.697,131.582 77.318,131.465 C76.157,132.452 74.690,132.989 73.039,132.989 C71.346,132.989 69.541,132.415 67.973,131.441 C67.308,131.832 66.604,132.146 65.943,132.427 C63.386,133.517 61.159,134.466 60.925,138.862 C61.248,138.865 61.571,138.868 61.893,138.872 ZM85.875,94.466 C85.064,94.466 84.379,93.840 84.323,93.022 C84.264,92.168 84.912,91.428 85.771,91.370 C86.086,91.348 86.406,91.324 86.727,91.296 C87.586,91.217 88.339,91.852 88.414,92.705 C88.489,93.558 87.856,94.310 86.999,94.384 C86.658,94.414 86.319,94.440 85.983,94.463 C85.947,94.465 85.911,94.466 85.875,94.466 ZM93.898,89.722 C94.018,89.659 94.131,89.595 94.239,89.528 C94.969,89.076 95.928,89.295 96.385,90.021 C96.841,90.747 96.619,91.704 95.890,92.157 C95.713,92.267 95.529,92.372 95.334,92.472 C95.105,92.591 94.859,92.648 94.617,92.648 C94.054,92.648 93.510,92.343 93.234,91.811 C92.837,91.052 93.134,90.116 93.898,89.722 ZM119.357,122.308 C121.128,121.452 121.740,121.077 121.740,119.520 C121.740,119.488 121.737,119.458 121.736,119.426 C117.940,117.738 115.692,113.021 115.692,108.580 C115.692,105.101 117.038,102.044 119.481,99.973 C120.665,98.970 122.139,98.386 123.770,98.210 L122.851,80.077 C122.807,79.222 123.469,78.494 124.328,78.451 C125.192,78.406 125.918,79.067 125.962,79.921 L126.898,98.380 C130.615,99.192 134.935,102.121 134.935,108.268 C134.935,112.530 133.022,115.938 130.434,117.980 C130.506,118.200 130.544,118.433 130.508,118.677 C130.482,118.865 130.465,119.061 130.465,119.259 C130.465,120.596 130.807,120.741 132.621,121.283 C135.102,122.025 138.850,123.146 139.993,130.086 C140.064,130.516 139.949,130.957 139.676,131.299 C139.405,131.641 139.000,131.853 138.563,131.883 C129.867,132.479 122.533,133.139 115.484,133.959 C115.424,133.966 115.363,133.970 115.303,133.970 C114.943,133.970 114.593,133.845 114.313,133.615 C113.985,133.346 113.782,132.957 113.750,132.536 C113.725,132.215 113.714,131.891 113.714,131.566 C113.714,125.033 116.976,123.458 119.357,122.308 ZM124.762,101.231 C123.868,101.231 122.576,101.422 121.501,102.333 C120.067,103.549 119.175,105.277 118.904,107.280 C121.661,104.247 124.683,102.413 127.815,101.918 C126.647,101.406 125.490,101.231 124.762,101.231 ZM131.820,108.268 C131.820,106.805 131.491,105.634 130.971,104.698 C130.724,104.826 130.454,104.914 130.157,104.895 C125.534,104.568 121.819,108.275 119.557,111.370 C119.471,111.487 119.370,111.584 119.261,111.670 C120.117,114.573 122.130,116.980 124.796,116.980 C128.118,116.980 131.820,113.402 131.820,108.268 ZM124.391,121.807 C124.976,122.202 125.671,122.432 126.373,122.432 C126.826,122.432 127.452,122.320 128.035,121.916 C127.685,121.329 127.436,120.602 127.384,119.643 C126.534,119.923 125.666,120.078 124.807,120.079 C124.755,120.748 124.598,121.307 124.391,121.807 ZM136.554,128.916 C135.564,125.400 133.692,124.840 131.723,124.252 C131.343,124.138 130.934,124.008 130.525,123.851 C130.481,123.903 130.457,123.966 130.405,124.013 C129.323,124.992 127.891,125.532 126.373,125.532 C124.945,125.532 123.534,125.026 122.388,124.170 C121.829,124.545 121.246,124.841 120.717,125.097 C118.773,126.036 117.075,126.856 116.854,130.682 C122.933,130.003 129.276,129.433 136.554,128.916 Z"/>
</svg>