<svg 
 xmlns="http://www.w3.org/2000/svg"
 xmlns:xlink="http://www.w3.org/1999/xlink"
 width="168px" height="126px">
<path fill-rule="evenodd"  fill="rgb(51, 54, 59)"
 d="M166.947,55.420 C165.955,55.497 164.963,55.595 163.970,55.690 C164.010,56.258 164.044,56.834 164.085,57.396 L164.194,58.899 C164.238,59.534 163.764,60.086 163.133,60.131 C163.105,60.133 163.078,60.134 163.050,60.134 C162.455,60.134 161.953,59.670 161.910,59.063 L161.801,57.566 C161.761,57.016 161.728,56.452 161.689,55.896 C160.490,56.011 159.291,56.128 158.092,56.221 C158.062,56.223 158.032,56.224 158.002,56.224 C157.410,56.224 156.908,55.764 156.862,55.159 C156.813,54.524 157.285,53.970 157.916,53.921 C159.122,53.828 160.328,53.710 161.534,53.594 C161.456,52.182 161.401,50.764 161.401,49.353 C161.401,48.716 161.913,48.200 162.546,48.200 C163.178,48.200 163.690,48.716 163.690,49.353 C163.690,50.686 163.741,52.038 163.816,53.388 C164.801,53.295 165.786,53.197 166.771,53.121 C167.391,53.076 167.953,53.547 168.000,54.182 C168.050,54.817 167.578,55.372 166.947,55.420 ZM18.706,110.982 C18.327,110.975 17.952,110.968 17.577,110.968 C16.631,110.968 15.510,111.007 14.359,111.297 C14.265,111.321 14.172,111.332 14.080,111.332 C13.567,111.332 13.100,110.982 12.970,110.458 C12.816,109.840 13.189,109.214 13.803,109.060 C15.195,108.709 16.492,108.662 17.577,108.662 C17.964,108.662 18.353,108.669 18.745,108.675 C19.133,108.682 19.524,108.689 19.922,108.689 C20.555,108.689 21.067,109.205 21.067,109.842 C21.067,110.479 20.555,110.995 19.922,110.995 C19.511,110.995 19.106,110.988 18.706,110.982 ZM31.047,106.266 C30.402,106.136 29.673,106.078 28.684,106.078 C28.250,106.078 27.816,106.089 27.388,106.099 C26.950,106.110 26.518,106.120 26.097,106.120 C25.465,106.120 24.952,105.604 24.952,104.967 C24.952,104.330 25.465,103.814 26.097,103.814 C26.501,103.814 26.914,103.804 27.332,103.794 C27.779,103.783 28.231,103.772 28.684,103.772 C29.830,103.772 30.697,103.843 31.496,104.004 C32.116,104.129 32.518,104.737 32.394,105.361 C32.285,105.910 31.807,106.289 31.273,106.289 C31.198,106.289 31.122,106.281 31.047,106.266 ZM35.892,110.102 C35.770,110.635 35.299,110.996 34.777,110.996 C34.692,110.996 34.606,110.986 34.519,110.966 C33.254,110.672 31.910,110.632 30.762,110.632 C30.314,110.632 29.867,110.639 29.424,110.646 C28.978,110.652 28.536,110.659 28.100,110.659 C27.468,110.659 26.955,110.143 26.955,109.506 C26.955,108.869 27.468,108.352 28.100,108.352 C28.524,108.352 28.955,108.346 29.390,108.339 C29.845,108.333 30.302,108.326 30.762,108.326 C32.039,108.326 33.545,108.373 35.033,108.719 C35.650,108.862 36.034,109.481 35.892,110.102 ZM45.459,106.961 C45.384,106.961 45.308,106.954 45.233,106.938 C43.675,106.624 42.109,106.624 40.450,106.624 C39.818,106.624 39.305,106.108 39.305,105.471 C39.305,104.834 39.818,104.318 40.450,104.318 C42.147,104.318 43.901,104.318 45.682,104.677 C46.302,104.802 46.704,105.409 46.580,106.034 C46.471,106.582 45.993,106.961 45.459,106.961 ZM45.939,110.615 C44.603,111.000 43.510,111.164 42.286,111.164 C41.654,111.164 41.141,110.647 41.141,110.010 C41.141,109.373 41.654,108.857 42.286,108.857 C43.298,108.857 44.174,108.724 45.310,108.397 C45.916,108.223 46.551,108.576 46.725,109.189 C46.899,109.801 46.547,110.439 45.939,110.615 ZM53.302,106.624 C52.670,106.624 52.157,106.108 52.157,105.471 C52.157,104.834 52.670,104.318 53.302,104.318 L57.307,104.318 C57.939,104.318 58.452,104.834 58.452,105.471 C58.452,106.108 57.939,106.624 57.307,106.624 L53.302,106.624 ZM68.196,105.609 C67.568,105.538 67.115,104.968 67.184,104.335 C67.255,103.702 67.820,103.246 68.449,103.316 C69.888,103.477 71.173,103.477 72.662,103.477 C73.294,103.477 73.807,103.994 73.807,104.631 C73.807,105.268 73.294,105.784 72.662,105.784 C71.170,105.784 69.761,105.784 68.196,105.609 ZM81.674,105.952 C81.042,105.952 80.529,105.436 80.529,104.799 C80.529,104.162 81.042,103.646 81.674,103.646 L84.845,103.646 C85.477,103.646 85.990,104.162 85.990,104.799 C85.990,105.436 85.477,105.952 84.845,105.952 L81.674,105.952 ZM100.701,106.121 C100.609,106.121 100.515,106.109 100.422,106.086 C99.859,105.944 99.221,105.906 98.547,105.866 C97.797,105.821 97.022,105.776 96.250,105.581 C95.637,105.427 95.264,104.800 95.418,104.183 C95.570,103.565 96.192,103.188 96.806,103.344 C97.370,103.486 98.007,103.524 98.682,103.563 C99.432,103.608 100.207,103.654 100.978,103.848 C101.592,104.003 101.964,104.629 101.811,105.247 C101.681,105.771 101.214,106.121 100.701,106.121 ZM109.523,109.002 C109.523,109.639 109.010,110.155 108.378,110.155 L104.372,110.155 C103.740,110.155 103.227,109.639 103.227,109.002 C103.227,108.364 103.740,107.848 104.372,107.848 L108.378,107.848 C109.010,107.848 109.523,108.364 109.523,109.002 ZM109.212,103.477 L112.884,103.477 C113.516,103.477 114.029,103.994 114.029,104.631 C114.029,105.268 113.516,105.784 112.884,105.784 L109.212,105.784 C108.580,105.784 108.067,105.268 108.067,104.631 C108.067,103.994 108.580,103.477 109.212,103.477 ZM125.211,109.506 C125.211,110.143 124.698,110.659 124.066,110.659 L120.728,110.659 C120.096,110.659 119.583,110.143 119.583,109.506 C119.583,108.869 120.096,108.352 120.728,108.352 L124.066,108.352 C124.698,108.352 125.211,108.869 125.211,109.506 ZM123.023,103.149 C123.613,103.213 124.413,103.183 125.174,103.143 C126.064,103.096 126.975,103.068 127.698,103.149 C128.326,103.219 128.779,103.789 128.709,104.422 C128.639,105.056 128.076,105.511 127.444,105.441 C126.857,105.374 126.055,105.406 125.294,105.446 C124.817,105.472 124.339,105.496 123.869,105.496 C123.467,105.496 123.107,105.478 122.773,105.441 C122.144,105.371 121.690,104.801 121.760,104.168 C121.829,103.535 122.390,103.075 123.023,103.149 ZM132.411,110.323 C131.779,110.323 131.266,109.807 131.266,109.170 C131.266,108.533 131.779,108.016 132.411,108.016 L136.751,108.016 C137.383,108.016 137.896,108.533 137.896,109.170 C137.896,109.807 137.383,110.323 136.751,110.323 L132.411,110.323 ZM116.475,72.630 C116.767,72.727 117.009,72.939 117.145,73.217 C117.693,74.340 118.266,75.446 118.838,76.552 C119.834,78.480 120.865,80.473 121.754,82.529 C122.005,83.110 121.744,83.786 121.170,84.043 C120.135,84.507 119.093,84.963 118.050,85.419 C114.255,87.080 110.331,88.798 106.770,90.922 C106.587,91.031 106.386,91.083 106.187,91.083 C105.802,91.083 105.425,90.887 105.210,90.531 C103.692,88.030 102.152,85.256 100.504,82.052 C100.217,81.492 100.428,80.803 100.980,80.505 C105.390,78.123 110.521,75.358 115.589,72.703 C115.862,72.560 116.182,72.534 116.475,72.630 ZM106.586,88.365 C109.991,86.432 113.618,84.844 117.137,83.304 C117.822,83.005 118.506,82.705 119.188,82.404 C118.442,80.779 117.613,79.176 116.806,77.617 C116.407,76.844 116.007,76.070 115.614,75.291 C111.274,77.573 106.924,79.913 103.060,81.999 C104.281,84.338 105.443,86.437 106.586,88.365 ZM74.694,87.908 C76.350,87.126 78.023,86.361 79.695,85.595 C81.346,84.839 82.998,84.083 84.634,83.311 C84.915,83.178 85.238,83.167 85.527,83.277 C85.817,83.388 86.049,83.613 86.171,83.900 C86.361,84.344 86.547,84.790 86.733,85.238 C87.220,86.404 87.723,87.610 88.284,88.772 C88.417,89.048 88.435,89.365 88.335,89.655 C88.236,89.945 88.025,90.182 87.751,90.315 C85.562,91.377 83.416,92.632 81.340,93.846 C80.415,94.387 79.492,94.927 78.562,95.453 C78.389,95.551 78.196,95.601 78.001,95.601 C77.889,95.601 77.777,95.584 77.668,95.551 C77.369,95.459 77.120,95.248 76.979,94.968 C76.571,94.156 76.153,93.355 75.734,92.554 C75.200,91.531 74.666,90.508 74.153,89.463 C74.017,89.186 73.997,88.864 74.099,88.571 C74.201,88.279 74.415,88.040 74.694,87.908 ZM77.761,91.480 C78.000,91.936 78.238,92.392 78.474,92.851 C79.047,92.520 79.619,92.186 80.190,91.851 C81.987,90.801 83.835,89.720 85.741,88.744 C85.346,87.866 84.980,86.988 84.622,86.131 C84.591,86.055 84.560,85.980 84.528,85.905 C83.238,86.506 81.941,87.101 80.643,87.695 C79.337,88.293 78.031,88.890 76.733,89.496 C77.072,90.161 77.417,90.820 77.761,91.480 ZM149.275,47.383 L134.208,54.602 C134.210,54.625 134.222,54.644 134.223,54.667 C134.567,65.923 135.076,74.157 135.524,81.422 C135.939,88.140 136.299,93.994 136.376,100.175 C136.378,100.205 136.393,100.230 136.393,100.260 C136.393,100.286 136.380,100.307 136.378,100.332 C136.380,100.451 136.383,100.568 136.384,100.687 C140.175,104.044 144.653,107.932 149.409,111.642 C149.666,111.842 149.826,112.143 149.850,112.470 C150.083,115.696 150.213,118.322 150.259,120.734 C150.271,121.369 149.771,121.894 149.142,121.909 C149.142,121.909 73.190,123.771 73.163,123.772 C72.864,123.772 72.577,123.654 72.363,123.444 C72.142,123.227 72.018,122.929 72.018,122.618 L72.018,122.450 C72.018,121.813 72.530,121.297 73.163,121.297 C73.371,121.297 73.566,121.353 73.734,121.451 L147.941,119.632 C147.885,117.704 147.774,115.605 147.602,113.149 C142.786,109.370 138.279,105.441 134.487,102.079 C134.292,101.906 134.186,101.667 134.141,101.413 L21.591,101.413 C20.959,101.413 20.446,100.897 20.446,100.260 C20.446,100.189 20.474,100.128 20.486,100.061 C20.405,100.229 20.284,100.379 20.128,100.492 C13.428,105.344 8.108,109.703 3.432,114.176 C3.436,114.504 3.437,114.831 3.437,115.158 C3.471,114.559 3.949,114.076 4.554,114.069 L51.161,113.512 C52.785,111.998 54.482,110.497 56.354,108.937 C56.559,108.765 56.818,108.672 57.084,108.672 L57.175,108.672 C61.271,108.672 65.444,108.768 69.480,108.861 C73.514,108.954 77.685,109.050 81.779,109.050 C86.274,109.050 90.201,108.932 93.788,108.689 C94.280,108.650 94.777,108.969 94.946,109.460 C95.315,110.526 95.755,111.642 96.330,112.973 L145.415,112.387 C146.055,112.387 146.566,112.895 146.574,113.527 C146.581,114.164 146.074,114.687 145.442,114.694 C145.442,114.694 122.761,114.965 95.604,115.289 C95.604,115.289 95.603,115.289 95.603,115.289 C55.076,115.772 4.576,116.375 4.568,116.375 C3.967,116.375 3.484,115.904 3.438,115.308 C3.438,115.327 3.438,115.347 3.438,115.366 C3.438,116.711 3.414,118.053 3.389,119.398 C3.365,120.732 3.340,122.068 3.340,123.411 C3.340,123.492 3.340,123.573 3.340,123.654 L69.453,121.466 C70.088,121.436 70.614,121.944 70.635,122.580 C70.656,123.217 70.160,123.750 69.528,123.771 C69.528,123.771 2.243,125.998 2.205,125.999 C1.912,125.999 1.629,125.885 1.415,125.680 C1.192,125.466 1.065,125.171 1.060,124.862 C1.054,124.377 1.050,123.893 1.050,123.411 C1.050,122.054 1.075,120.703 1.099,119.355 C1.124,118.025 1.148,116.697 1.148,115.366 C1.148,114.815 1.145,114.263 1.134,113.711 C1.128,113.389 1.257,113.079 1.488,112.856 C6.212,108.300 11.560,103.883 18.282,98.988 C17.906,91.929 17.539,84.339 17.129,75.174 C16.901,70.085 16.513,64.948 16.138,59.979 C15.622,53.153 15.106,46.109 14.982,39.082 C14.913,39.095 14.843,39.105 14.775,39.105 C14.248,39.105 13.773,38.735 13.657,38.194 C13.525,37.571 13.918,36.957 14.536,36.824 C14.766,36.774 14.995,36.723 15.223,36.671 C15.329,36.647 15.432,36.658 15.535,36.663 C15.699,36.569 15.879,36.501 16.081,36.499 C16.719,36.499 17.231,37.008 17.237,37.641 C17.308,45.061 17.874,52.556 18.421,59.804 C18.798,64.790 19.186,69.946 19.416,75.070 C19.838,84.501 20.215,92.262 20.603,99.493 C20.609,99.602 20.565,99.700 20.542,99.803 C20.718,99.394 21.121,99.107 21.591,99.107 L134.070,99.107 C133.967,93.377 133.627,87.853 133.239,81.565 C132.802,74.489 132.308,66.486 131.964,55.677 L78.606,81.245 C78.451,81.319 78.283,81.356 78.114,81.356 C77.979,81.356 77.842,81.332 77.713,81.283 C77.422,81.174 77.188,80.950 77.064,80.663 C74.043,73.662 70.867,66.568 67.795,59.708 C64.189,51.655 60.460,43.327 56.960,35.100 C56.942,35.060 56.946,35.018 56.934,34.977 C56.930,34.962 56.927,34.949 56.925,34.935 C56.787,34.403 57.022,33.835 57.533,33.599 L83.807,21.406 C72.154,21.445 36.949,21.562 36.946,21.562 C36.315,21.562 35.803,21.048 35.801,20.412 C35.799,19.776 36.310,19.258 36.942,19.255 L87.512,19.087 C87.786,19.087 88.026,19.196 88.223,19.356 L127.320,1.213 C127.352,1.198 127.387,1.201 127.420,1.189 C127.437,1.183 127.456,1.182 127.473,1.177 C127.594,1.140 127.714,1.115 127.840,1.120 C127.887,1.121 127.933,1.138 127.980,1.145 C128.061,1.158 128.145,1.157 128.222,1.188 C128.237,1.194 128.247,1.208 128.262,1.215 C128.276,1.220 128.291,1.219 128.304,1.225 C128.383,1.262 128.438,1.323 128.504,1.374 C128.542,1.405 128.586,1.426 128.619,1.461 C128.750,1.593 128.846,1.748 128.901,1.922 C132.463,10.817 136.862,19.549 141.117,27.995 C144.046,33.806 147.075,39.816 149.824,45.861 C150.084,46.434 149.840,47.112 149.275,47.383 ZM93.851,113.003 C93.563,112.309 93.307,111.662 93.079,111.046 C89.676,111.255 85.968,111.357 81.779,111.357 C77.659,111.357 73.474,111.260 69.427,111.167 C65.511,111.077 61.464,110.983 57.497,110.979 C56.490,111.823 55.539,112.649 54.616,113.471 L93.851,113.003 ZM146.137,46.332 C137.842,43.456 132.403,41.946 128.011,40.733 C123.068,39.368 119.100,38.263 113.358,35.899 L108.826,45.593 C108.634,46.003 108.227,46.255 107.791,46.255 C107.713,46.255 107.636,46.247 107.558,46.231 L92.710,43.135 C91.963,45.166 90.874,47.762 89.612,50.766 C86.396,58.420 82.058,68.747 79.969,78.038 L146.137,46.332 ZM69.882,58.760 C72.532,64.679 75.256,70.770 77.898,76.832 C80.086,67.528 84.332,57.414 87.503,49.867 C88.690,47.043 89.713,44.599 90.438,42.661 L59.974,36.309 C63.200,43.826 66.590,51.407 69.882,58.760 ZM61.537,34.280 L107.138,43.788 L125.452,4.620 L61.537,34.280 ZM139.076,29.039 C135.169,21.287 131.161,13.289 127.751,5.117 L114.336,33.809 C119.894,36.090 123.782,37.173 128.617,38.509 C132.957,39.707 138.312,41.194 146.407,43.987 C144.040,38.939 141.533,33.916 139.076,29.039 ZM72.419,6.741 C71.367,6.785 70.329,6.844 69.296,6.903 C69.178,6.910 69.055,6.915 68.937,6.922 C68.942,7.011 68.945,7.096 68.950,7.186 C69.009,8.238 69.068,9.295 69.113,10.367 C69.139,11.004 68.648,11.541 68.016,11.567 C68.000,11.568 67.984,11.568 67.968,11.568 C67.357,11.568 66.850,11.083 66.824,10.463 C66.781,9.402 66.722,8.357 66.663,7.316 C66.658,7.226 66.654,7.131 66.649,7.041 C65.504,7.093 64.348,7.133 63.177,7.133 C62.545,7.133 62.032,6.617 62.032,5.980 C62.032,5.343 62.545,4.826 63.177,4.826 C64.310,4.826 65.418,4.789 66.531,4.738 C66.477,3.556 66.435,2.362 66.435,1.153 C66.435,0.516 66.948,-0.000 67.580,-0.000 C68.212,-0.000 68.725,0.516 68.725,1.153 C68.725,2.323 68.765,3.468 68.818,4.618 C68.936,4.611 69.048,4.606 69.166,4.600 C70.211,4.541 71.260,4.481 72.325,4.436 C72.956,4.410 73.490,4.905 73.516,5.541 C73.517,5.557 73.517,5.574 73.517,5.589 C73.517,6.204 73.035,6.715 72.419,6.741 ZM36.939,10.373 L36.960,10.739 L35.449,10.836 L34.673,10.874 L34.663,10.691 C34.294,10.782 33.908,10.843 33.493,10.843 C30.986,10.843 29.301,9.031 29.301,6.335 C29.301,4.029 30.497,1.481 33.124,1.334 C35.600,1.195 38.217,3.009 38.217,6.138 C38.217,7.409 37.630,8.722 36.613,9.642 C36.796,9.835 36.923,10.086 36.939,10.373 ZM33.402,3.632 C33.352,3.632 33.302,3.633 33.252,3.637 C32.033,3.705 31.591,5.287 31.591,6.335 C31.591,7.754 32.266,8.536 33.493,8.536 C35.332,8.536 35.927,6.921 35.927,6.138 C35.927,4.569 34.644,3.632 33.402,3.632 ZM34.674,10.885 L35.449,10.836 L35.817,10.817 L34.674,10.885 ZM31.696,30.427 C31.434,30.427 31.170,30.336 30.954,30.152 C30.473,29.738 30.416,29.010 30.826,28.526 C30.970,28.355 31.111,28.180 31.250,28.003 C31.641,27.502 32.361,27.416 32.857,27.810 C33.355,28.204 33.440,28.929 33.049,29.430 C32.893,29.630 32.732,29.828 32.568,30.021 C32.342,30.289 32.020,30.427 31.696,30.427 ZM34.937,16.592 C34.949,15.962 35.459,15.460 36.081,15.460 C36.736,15.472 37.238,15.997 37.227,16.634 C37.222,16.887 37.214,17.137 37.203,17.385 C37.176,18.003 36.670,18.487 36.061,18.487 C36.043,18.487 36.026,18.486 36.009,18.486 C35.378,18.458 34.888,17.919 34.916,17.283 C34.926,17.055 34.933,16.824 34.937,16.592 ZM36.207,23.349 C36.131,23.593 36.052,23.833 35.968,24.070 C35.802,24.543 35.360,24.839 34.889,24.839 C34.762,24.839 34.633,24.818 34.507,24.773 C33.911,24.560 33.598,23.901 33.809,23.301 C33.884,23.088 33.955,22.873 34.023,22.655 C34.214,22.048 34.856,21.711 35.460,21.902 C36.063,22.094 36.397,22.741 36.207,23.349 ZM38.784,66.391 C43.503,64.691 48.381,62.933 53.229,61.278 C53.517,61.179 53.834,61.201 54.106,61.337 C54.379,61.474 54.587,61.715 54.683,62.006 C56.533,67.616 58.614,73.251 60.626,78.700 L61.074,79.913 C61.288,80.496 61.006,81.146 60.435,81.381 C57.263,82.691 54.084,83.970 50.906,85.247 C45.523,87.412 39.955,89.651 34.535,92.010 C34.390,92.073 34.235,92.104 34.081,92.104 C33.922,92.104 33.763,92.071 33.616,92.005 C33.323,91.874 33.098,91.625 32.996,91.320 L32.164,88.843 C30.301,83.299 28.375,77.565 26.661,71.878 C26.482,71.285 26.801,70.656 27.382,70.453 C31.188,69.127 35.050,67.736 38.784,66.391 ZM39.555,68.562 C36.683,69.597 33.735,70.655 30.794,71.694 C32.948,72.334 35.071,73.068 37.141,73.785 C39.583,74.630 42.100,75.501 44.607,76.192 C45.517,74.678 46.501,73.201 47.456,71.765 C49.083,69.321 50.731,66.798 52.004,64.141 C47.822,65.589 43.628,67.095 39.555,68.562 ZM53.646,66.043 C52.381,68.501 50.852,70.805 49.358,73.049 C49.257,73.200 49.156,73.357 49.056,73.508 C50.995,74.117 52.777,75.062 54.498,76.000 C55.626,76.615 56.713,77.197 57.812,77.677 C56.406,73.852 54.993,69.961 53.646,66.043 ZM50.057,83.105 C52.557,82.100 55.058,81.090 57.556,80.069 C56.114,79.497 54.742,78.756 53.408,78.028 C51.505,76.991 49.705,76.013 47.740,75.508 C47.186,76.368 46.645,77.237 46.139,78.110 C45.931,78.471 45.550,78.683 45.150,78.683 C45.055,78.683 44.960,78.671 44.865,78.647 C43.534,78.302 42.208,77.902 40.892,77.480 C40.323,78.366 38.503,81.518 36.075,88.851 C40.741,86.864 45.463,84.953 50.057,83.105 ZM34.122,87.469 C36.182,81.363 37.812,78.169 38.655,76.741 C37.896,76.484 37.142,76.224 36.396,75.966 C34.192,75.203 31.927,74.426 29.651,73.767 C31.081,78.365 32.613,82.972 34.122,87.469 ZM26.759,48.339 C31.045,46.380 35.276,44.504 40.309,42.291 C40.596,42.164 40.924,42.163 41.213,42.286 C41.502,42.409 41.728,42.646 41.839,42.942 C42.920,45.837 43.894,48.588 44.819,51.354 C45.014,51.937 44.720,52.572 44.150,52.796 C39.854,54.488 35.449,56.564 31.057,58.967 C30.888,59.059 30.700,59.106 30.511,59.106 C30.377,59.106 30.244,59.083 30.116,59.035 C29.807,58.921 29.561,58.678 29.443,58.368 L28.200,55.117 C27.526,53.351 26.851,51.585 26.165,49.807 C25.945,49.237 26.206,48.593 26.759,48.339 ZM30.337,54.289 L31.113,56.319 C34.862,54.317 38.615,52.550 42.300,51.054 C41.612,49.025 40.892,46.992 40.118,44.892 C35.951,46.727 32.316,48.341 28.692,49.990 C29.244,51.427 29.791,52.858 30.337,54.289 ZM27.398,34.421 C27.211,34.538 27.002,34.594 26.797,34.594 C26.413,34.594 26.039,34.400 25.822,34.048 C25.489,33.506 25.655,32.795 26.194,32.460 C26.387,32.339 26.579,32.216 26.768,32.090 C27.298,31.740 28.006,31.886 28.354,32.418 C28.703,32.949 28.557,33.665 28.029,34.015 C27.822,34.153 27.611,34.288 27.398,34.421 ZM21.244,34.877 C21.837,34.650 22.496,34.951 22.721,35.546 C22.945,36.142 22.648,36.808 22.056,37.033 C21.828,37.121 21.597,37.207 21.365,37.290 C21.237,37.337 21.107,37.358 20.979,37.358 C20.509,37.358 20.069,37.065 19.901,36.594 C19.688,35.994 19.998,35.334 20.593,35.119 C20.812,35.040 21.029,34.959 21.244,34.877 ZM3.929,34.182 C4.126,34.132 4.329,34.107 4.535,34.107 C6.082,34.107 8.283,35.615 8.779,37.804 L8.983,37.778 C9.607,37.693 10.184,38.141 10.266,38.772 C10.348,39.404 9.905,39.983 9.278,40.065 L8.896,40.115 C8.847,40.121 8.799,40.124 8.750,40.124 C8.695,40.124 8.645,40.102 8.591,40.095 C7.895,41.889 5.996,43.406 4.105,43.406 C1.649,43.406 -0.000,41.123 -0.000,38.991 C-0.000,36.814 1.689,34.747 3.929,34.182 ZM4.105,41.099 C5.308,41.099 6.597,39.695 6.597,38.707 C6.597,37.431 5.116,36.414 4.535,36.414 C4.534,36.414 4.486,36.420 4.486,36.420 C3.254,36.730 2.290,37.859 2.290,38.991 C2.290,39.871 2.980,41.099 4.105,41.099 ZM17.981,19.529 C16.706,19.529 15.905,19.041 15.388,18.353 C14.924,19.906 13.873,21.361 11.490,21.361 C9.039,21.361 7.522,18.694 7.522,16.223 C7.522,12.708 9.692,10.157 12.681,10.157 C16.054,10.157 16.430,13.084 16.655,14.832 C16.933,16.987 17.169,17.222 17.981,17.222 C19.831,17.222 20.967,14.468 20.967,12.494 C20.967,9.834 17.994,6.870 13.727,6.870 C10.262,6.870 3.711,8.807 3.711,16.139 C3.711,22.446 8.001,25.269 12.254,25.269 C15.417,25.269 17.964,23.975 20.042,21.312 C20.432,20.812 21.153,20.724 21.649,21.118 C22.147,21.512 22.233,22.236 21.843,22.737 C19.338,25.948 16.112,27.576 12.254,27.576 C5.875,27.576 1.421,22.873 1.421,16.139 C1.421,10.563 5.271,4.563 13.727,4.563 C18.893,4.563 23.257,8.195 23.257,12.494 C23.257,15.877 21.240,19.529 17.981,19.529 ZM12.681,12.463 C10.709,12.463 9.812,14.412 9.812,16.223 C9.812,17.705 10.611,19.055 11.490,19.055 C12.530,19.055 13.465,18.757 13.465,15.163 C13.465,14.893 13.461,14.629 13.457,14.376 C13.454,14.132 13.451,13.897 13.451,13.676 C13.451,13.358 13.578,13.070 13.785,12.861 C13.547,12.566 13.207,12.463 12.681,12.463 ZM148.705,88.787 C148.433,88.787 148.168,88.689 147.959,88.509 C147.724,88.305 147.580,88.014 147.562,87.701 C147.448,85.749 147.328,83.792 147.208,81.834 C147.092,79.938 146.975,78.041 146.865,76.150 C146.828,75.523 147.297,74.981 147.920,74.932 C152.565,74.571 157.132,73.956 160.986,73.401 C161.301,73.354 161.623,73.445 161.871,73.649 C162.118,73.852 162.271,74.150 162.291,74.472 C162.440,76.905 162.643,79.384 162.839,81.782 C162.961,83.277 163.084,84.773 163.195,86.269 C163.240,86.887 162.793,87.431 162.182,87.500 C159.216,87.839 156.189,88.111 153.260,88.374 C151.780,88.506 150.297,88.639 148.813,88.781 C148.777,88.785 148.741,88.787 148.705,88.787 ZM149.493,81.692 C149.590,83.254 149.685,84.815 149.777,86.374 C150.872,86.272 151.964,86.174 153.057,86.076 C155.610,85.847 158.239,85.611 160.827,85.331 C160.740,84.211 160.648,83.091 160.557,81.971 C160.393,79.968 160.225,77.908 160.086,75.859 C156.789,76.324 153.052,76.809 149.218,77.140 C149.308,78.656 149.400,80.174 149.493,81.692 Z"/>
</svg>