<svg 
 xmlns="http://www.w3.org/2000/svg"
 xmlns:xlink="http://www.w3.org/1999/xlink"
 width="202px" height="133px">
<path fill-rule="evenodd"  fill="rgb(51, 54, 59)"
 d="M201.980,65.044 C201.980,65.045 201.982,65.047 201.982,65.049 C201.982,65.054 201.979,65.059 201.980,65.064 C201.503,79.891 190.048,91.371 175.500,91.371 C172.649,91.371 169.968,90.915 167.478,90.104 C166.704,91.296 165.231,94.065 163.796,96.766 C162.114,99.930 160.530,102.908 159.607,104.281 C159.915,104.843 160.104,105.482 160.104,106.184 C160.104,108.608 158.107,110.507 155.558,110.507 C153.611,110.507 152.314,108.706 152.023,106.797 C150.169,106.168 148.382,105.389 146.653,104.626 C145.211,103.991 143.849,103.391 142.444,102.871 C142.399,102.854 142.368,102.819 142.326,102.798 C141.562,103.697 140.444,104.208 139.336,104.208 C138.178,104.208 137.080,103.645 136.279,102.789 C136.225,102.832 136.184,102.888 136.120,102.923 C133.858,104.162 131.450,105.241 129.121,106.285 C127.620,106.958 126.079,107.657 124.586,108.388 C124.680,108.726 124.737,109.083 124.737,109.463 C124.737,110.846 123.559,113.879 120.056,113.879 C117.743,113.879 116.064,112.087 116.064,109.618 C116.064,108.586 116.385,107.580 116.968,106.786 C117.750,105.720 118.986,105.435 119.392,105.342 C120.691,105.041 122.181,105.470 123.262,106.392 C124.876,105.593 126.538,104.844 128.150,104.121 C130.436,103.097 132.801,102.037 134.979,100.843 C135.040,100.809 135.108,100.805 135.172,100.783 C135.088,100.455 135.031,100.120 135.031,99.777 C135.031,98.949 135.301,98.153 135.811,97.473 C136.482,96.578 137.379,96.319 138.034,96.130 L138.270,96.061 C138.580,95.966 138.904,95.917 139.234,95.917 C140.911,95.917 143.273,97.235 143.273,100.163 C143.273,100.331 143.243,100.482 143.226,100.640 C143.240,100.645 143.254,100.642 143.268,100.647 C144.740,101.192 146.200,101.835 147.611,102.457 C149.131,103.127 150.696,103.809 152.281,104.376 C152.546,103.734 152.963,103.203 153.551,102.850 C154.260,102.426 155.081,102.201 155.925,102.201 C156.632,102.201 157.277,102.367 157.849,102.638 C158.749,101.207 160.305,98.279 161.699,95.654 C163.063,93.088 164.357,90.654 165.215,89.245 C154.923,84.767 148.514,73.909 148.514,63.603 C148.514,49.980 159.500,38.393 172.865,37.476 C172.874,37.475 172.881,37.469 172.891,37.468 C172.902,37.467 172.912,37.472 172.923,37.471 C173.468,37.435 174.015,37.410 174.568,37.410 C175.430,37.410 176.306,37.456 177.169,37.547 C177.452,37.577 177.723,37.603 177.987,37.628 C179.083,37.732 180.117,37.831 181.337,38.149 C182.413,38.429 183.444,38.778 184.452,39.158 C184.475,39.165 184.499,39.161 184.522,39.171 C184.541,39.179 184.554,39.195 184.573,39.204 C195.259,43.275 202.003,52.723 202.003,64.104 C202.003,64.419 201.990,64.731 201.980,65.044 ZM120.319,107.608 C120.185,107.608 120.053,107.623 119.926,107.652 C119.384,107.777 119.062,107.943 118.882,108.188 C118.595,108.579 118.438,109.086 118.438,109.618 C118.438,110.490 118.862,111.508 120.056,111.508 C122.191,111.508 122.363,109.483 122.363,109.463 C122.363,108.253 121.176,107.608 120.319,107.608 ZM139.234,98.289 C139.139,98.289 139.052,98.302 138.967,98.327 L138.693,98.408 C138.190,98.553 137.896,98.648 137.710,98.895 C137.504,99.169 137.405,99.457 137.405,99.777 C137.405,100.778 138.397,101.836 139.336,101.836 C139.742,101.836 140.900,101.529 140.900,100.163 C140.900,98.369 139.251,98.289 139.234,98.289 ZM155.925,104.573 C155.517,104.573 155.107,104.683 154.772,104.884 C154.481,105.059 154.333,105.429 154.333,105.985 C154.333,107.050 154.951,108.136 155.558,108.136 C156.817,108.136 157.730,107.315 157.730,106.184 C157.730,105.077 156.795,104.573 155.925,104.573 ZM171.937,39.940 C160.284,41.305 150.887,51.584 150.887,63.603 C150.887,75.868 160.777,89.000 175.500,89.000 C188.276,89.000 198.432,79.248 199.526,66.409 C197.046,66.583 194.565,66.753 192.082,66.921 C186.547,67.295 180.825,67.682 175.225,68.134 C175.192,68.136 175.161,68.138 175.129,68.138 C174.841,68.138 174.562,68.033 174.344,67.841 C174.102,67.628 173.958,67.327 173.944,67.005 C173.589,59.053 172.965,50.647 171.937,39.940 ZM180.737,40.443 C179.702,40.173 178.803,40.088 177.761,39.988 C177.490,39.963 177.211,39.936 176.920,39.905 C176.139,39.823 175.348,39.782 174.568,39.782 C174.480,39.782 174.394,39.787 174.307,39.788 C174.985,46.860 175.485,52.924 175.851,58.530 C177.813,53.001 180.018,47.199 182.516,40.979 C181.933,40.786 181.344,40.601 180.737,40.443 ZM184.738,41.811 C181.414,50.089 178.617,57.611 176.210,64.748 C176.226,65.055 176.243,65.367 176.258,65.673 C181.481,65.261 186.782,64.903 191.922,64.555 C194.491,64.381 197.059,64.206 199.626,64.025 C199.596,54.064 193.881,45.719 184.738,41.811 ZM154.980,33.992 C150.141,33.992 144.997,30.328 144.997,23.537 C144.997,18.690 148.011,13.057 153.597,12.161 C154.264,12.054 154.949,12.000 155.633,12.000 C161.929,12.000 165.997,16.302 165.997,22.959 C165.997,28.383 161.877,33.992 154.980,33.992 ZM155.633,14.127 C155.057,14.127 154.481,14.173 153.921,14.263 C149.477,14.974 147.080,19.572 147.080,23.537 C147.080,29.647 151.805,31.865 154.980,31.865 C160.573,31.865 163.914,27.337 163.914,22.959 C163.914,17.429 160.818,14.127 155.633,14.127 ZM159.418,28.761 C159.036,28.761 158.668,28.546 158.486,28.172 C158.345,27.885 158.128,27.583 157.895,27.315 C157.353,27.566 156.832,27.706 156.498,27.788 C156.383,27.817 156.285,27.840 156.212,27.864 C156.103,27.901 155.992,27.919 155.883,27.919 C155.446,27.919 155.040,27.637 154.895,27.191 C154.713,26.634 155.008,26.031 155.554,25.846 C155.669,25.807 155.824,25.766 156.007,25.721 C157.364,25.385 158.053,24.991 158.053,23.766 C158.053,23.121 157.899,22.963 157.271,22.963 C156.747,22.963 156.150,23.238 155.517,23.529 C154.749,23.883 153.879,24.284 152.909,24.284 C151.506,24.284 150.053,23.402 150.053,21.925 C150.053,21.295 150.565,20.296 151.438,19.375 C151.406,19.324 151.368,19.269 151.339,19.222 C151.209,19.013 151.131,18.891 151.017,18.803 C150.556,18.451 150.463,17.784 150.808,17.314 C151.154,16.844 151.807,16.749 152.266,17.101 C152.681,17.419 152.911,17.784 153.082,18.059 C153.686,17.702 154.361,17.419 155.090,17.270 C155.649,17.156 156.203,17.528 156.315,18.104 C156.428,18.680 156.062,19.241 155.498,19.356 C153.631,19.737 152.370,21.406 152.154,21.942 C152.237,22.009 152.541,22.156 152.909,22.156 C153.432,22.156 154.028,21.882 154.660,21.590 C155.428,21.237 156.300,20.835 157.271,20.835 C159.038,20.835 160.136,21.959 160.136,23.766 C160.136,24.719 159.874,25.421 159.504,25.973 C159.834,26.365 160.140,26.794 160.349,27.222 C160.606,27.748 160.398,28.387 159.883,28.649 C159.734,28.725 159.575,28.761 159.418,28.761 ZM131.548,30.665 C131.295,30.980 130.916,31.168 130.484,31.176 C130.090,31.176 129.714,31.006 129.455,30.708 L129.118,30.319 C126.936,27.807 124.462,24.959 122.697,23.567 C122.256,23.219 122.075,22.636 122.239,22.100 C122.403,21.563 122.880,21.183 123.441,21.141 C125.777,20.967 127.952,20.852 130.033,20.782 C129.942,19.970 129.915,19.173 129.915,18.477 L129.917,17.653 C129.917,8.774 124.634,3.474 115.784,3.474 C110.695,3.474 105.680,5.600 102.371,9.161 C102.002,9.558 101.454,9.675 100.969,9.524 C102.162,10.132 102.862,11.316 102.862,12.927 C102.862,16.063 100.112,17.988 98.141,17.988 C96.595,17.988 93.205,16.860 93.205,13.509 C93.205,11.311 94.547,9.468 96.545,8.923 C96.938,8.816 97.342,8.894 97.658,9.103 C97.856,9.096 98.048,9.094 98.243,9.084 C98.474,9.073 98.704,9.063 98.935,9.063 C99.619,9.063 100.220,9.192 100.744,9.415 C100.641,9.361 100.534,9.315 100.445,9.232 C99.893,8.721 99.861,7.860 100.373,7.309 C104.190,3.202 109.950,0.751 115.784,0.751 C126.182,0.751 132.642,7.228 132.642,17.653 L132.640,18.477 C132.640,19.202 132.655,19.970 132.760,20.719 C133.239,20.713 133.723,20.704 134.192,20.704 C135.158,20.704 136.123,20.716 137.087,20.742 C137.619,20.757 138.094,21.079 138.303,21.568 C138.512,22.057 138.417,22.623 138.061,23.017 C135.838,25.469 133.647,28.042 131.548,30.665 ZM98.935,11.785 C98.749,11.785 98.562,11.795 98.375,11.804 C97.895,11.827 97.389,11.865 97.005,11.642 C96.264,11.979 95.930,12.793 95.930,13.509 C95.930,15.079 98.119,15.266 98.141,15.266 C98.622,15.266 100.137,14.562 100.137,12.927 C100.137,12.073 99.834,11.785 98.935,11.785 ZM126.782,23.649 C127.956,24.856 129.204,26.269 130.446,27.695 C131.625,26.250 132.830,24.823 134.050,23.426 C131.764,23.430 129.364,23.503 126.782,23.649 ZM109.520,26.955 C110.146,32.089 110.462,37.204 110.462,42.156 C110.462,42.877 110.445,43.598 110.431,44.319 C113.131,44.267 115.833,44.212 118.484,44.152 L118.685,44.147 C123.568,44.037 128.617,43.923 133.583,43.868 C134.418,43.868 135.095,44.490 135.147,45.316 C135.163,45.550 135.173,45.784 135.184,46.017 L135.211,46.577 C135.587,53.124 135.637,59.638 135.661,66.865 C135.687,74.073 135.713,81.484 136.203,88.709 C136.230,89.123 136.093,89.525 135.818,89.837 C135.547,90.144 135.157,90.336 134.748,90.360 L134.507,90.374 C130.772,90.597 126.912,90.828 123.165,90.828 L122.760,90.826 C121.930,90.819 119.951,90.806 118.349,90.806 C108.545,90.806 98.611,91.135 89.005,91.454 C83.673,91.631 78.181,91.814 72.579,91.941 C71.761,91.936 71.086,91.294 71.042,90.476 C70.295,76.570 69.990,62.425 69.694,48.746 L69.613,44.985 C69.603,44.544 69.783,44.118 70.106,43.817 C70.399,43.546 70.762,43.402 71.155,43.402 C71.205,43.402 71.255,43.404 71.306,43.409 C75.428,43.793 79.716,44.064 84.333,44.238 C84.214,42.385 84.093,40.532 83.962,38.676 C83.725,35.336 83.480,31.881 83.315,28.493 C83.298,28.129 83.427,27.772 83.674,27.504 C83.922,27.236 84.267,27.078 84.632,27.066 C92.158,26.824 99.823,26.397 108.063,25.762 C108.803,25.703 109.431,26.232 109.520,26.955 ZM132.895,85.166 L132.814,82.996 C132.614,77.694 132.580,72.345 132.561,66.876 C132.542,61.484 132.512,56.621 132.346,51.706 L132.280,49.779 L130.835,51.057 C127.053,54.406 123.112,57.752 119.637,60.704 C117.968,62.121 116.282,63.559 114.594,65.006 L113.920,65.584 L114.483,66.270 C120.590,73.704 128.273,80.935 131.292,83.699 L132.895,85.166 ZM77.630,88.708 C81.383,88.602 85.134,88.483 88.882,88.359 C98.530,88.039 108.491,87.708 118.349,87.708 C119.852,87.708 121.686,87.721 122.602,87.727 L123.162,87.731 C124.759,87.731 126.504,87.686 128.657,87.589 L130.847,87.491 L129.229,86.013 C126.189,83.235 118.440,75.950 112.166,68.333 L111.572,67.612 L110.868,68.226 C108.158,70.587 105.983,72.529 104.022,74.337 C103.735,74.602 103.362,74.748 102.970,74.748 C102.573,74.748 102.195,74.598 101.906,74.325 C99.730,72.269 97.535,70.224 95.333,68.187 L94.643,67.549 L94.029,68.261 C88.125,75.093 82.112,81.611 76.938,87.184 L75.467,88.770 L77.630,88.708 ZM72.775,47.723 L72.820,49.822 C73.054,60.685 73.325,72.249 73.832,83.703 L73.928,85.873 L75.405,84.280 C80.655,78.620 86.272,72.503 91.783,66.122 L92.358,65.456 L91.709,64.861 C85.784,59.430 79.776,54.020 74.609,49.375 L72.775,47.723 ZM76.546,46.950 L78.468,48.678 C86.608,55.998 94.562,63.175 102.372,70.509 L102.984,71.083 L103.605,70.520 C108.188,66.365 112.970,62.302 117.595,58.372 L117.699,58.283 C121.385,55.153 125.196,51.915 128.899,48.635 L130.739,47.004 L128.279,47.048 C125.038,47.106 121.797,47.175 118.557,47.248 L118.446,47.251 C111.577,47.406 104.473,47.566 97.492,47.566 C94.673,47.566 92.023,47.533 89.459,47.480 C88.250,47.507 87.051,47.523 85.828,47.563 C85.582,47.563 85.361,47.478 85.161,47.363 C83.090,47.291 81.066,47.208 79.127,47.097 L76.546,46.950 ZM88.454,29.646 C88.497,29.687 88.542,29.728 88.584,29.769 C89.395,30.548 90.232,31.353 91.110,32.087 C92.781,33.486 94.520,34.743 96.202,35.960 C96.486,36.165 96.769,36.370 97.051,36.575 C99.765,33.889 102.578,31.258 105.422,28.684 C99.551,29.109 93.945,29.426 88.454,29.646 ZM107.181,30.770 C104.105,33.555 101.067,36.409 98.150,39.323 C97.886,39.587 97.537,39.722 97.187,39.722 C96.904,39.722 96.620,39.634 96.378,39.456 C95.791,39.023 95.199,38.596 94.605,38.165 C92.884,36.921 91.105,35.635 89.359,34.174 C88.411,33.380 87.539,32.542 86.696,31.732 C86.528,31.571 86.367,31.421 86.202,31.263 C86.346,33.682 86.512,36.111 86.680,38.485 C86.818,40.435 86.953,42.384 87.077,44.330 C90.353,44.423 93.801,44.469 97.492,44.469 C99.287,44.469 101.099,44.436 102.907,44.417 C104.514,44.351 106.122,44.271 107.720,44.157 C107.731,43.490 107.737,42.823 107.737,42.156 C107.737,38.436 107.543,34.618 107.181,30.770 ZM56.131,36.576 C48.134,36.576 42.762,29.561 42.762,23.008 C42.762,14.304 49.172,9.103 55.368,9.103 C56.096,9.103 56.828,9.168 57.544,9.296 C59.990,9.732 62.807,10.447 65.154,12.440 C67.936,14.803 68.928,19.278 68.928,22.680 C68.928,30.602 63.426,36.576 56.131,36.576 ZM63.389,14.514 C61.542,12.945 59.258,12.367 57.066,11.976 C56.507,11.876 55.935,11.826 55.368,11.826 C48.553,11.826 45.487,18.365 45.487,23.008 C45.487,28.246 49.763,33.854 56.131,33.854 C61.967,33.854 66.203,29.154 66.203,22.680 C66.203,19.805 65.333,16.165 63.389,14.514 ZM59.484,26.751 C59.567,27.165 59.724,27.539 59.923,28.012 L60.124,28.500 C60.403,29.198 60.065,29.990 59.366,30.270 C59.200,30.336 59.029,30.368 58.859,30.368 C58.319,30.368 57.808,30.044 57.594,29.512 L57.410,29.066 C57.305,28.817 57.200,28.561 57.103,28.294 C56.107,28.723 55.024,28.979 53.954,28.979 C53.389,28.979 52.833,28.915 52.306,28.790 C51.573,28.616 51.120,27.883 51.293,27.151 C51.467,26.420 52.199,25.966 52.934,26.141 C55.094,26.648 58.225,25.254 58.225,23.195 C58.225,22.913 58.225,22.388 56.390,22.388 C55.364,22.388 53.688,22.654 53.128,22.756 C53.047,22.771 52.966,22.778 52.883,22.778 C51.591,22.778 50.767,21.412 50.767,20.472 C50.767,19.569 51.485,18.368 52.590,17.333 C52.467,17.129 52.377,16.903 52.377,16.647 C52.368,16.597 52.267,16.421 52.202,16.306 C52.032,16.008 51.800,15.600 51.694,15.067 C51.546,14.330 52.024,13.613 52.762,13.466 C53.502,13.321 54.218,13.796 54.365,14.535 C54.386,14.635 54.471,14.785 54.570,14.959 C54.692,15.173 54.835,15.436 54.943,15.747 C55.775,15.370 56.669,15.134 57.571,15.134 C57.698,15.134 57.826,15.138 57.956,15.147 C58.707,15.198 59.274,15.847 59.224,16.597 C59.172,17.347 58.527,17.916 57.772,17.863 C56.210,17.768 54.645,18.991 53.905,19.878 C54.661,19.773 55.620,19.666 56.390,19.666 C60.505,19.666 60.950,22.133 60.950,23.195 C60.950,24.571 60.364,25.756 59.462,26.698 C59.466,26.717 59.480,26.731 59.484,26.751 ZM46.978,45.870 C46.978,51.167 43.745,54.948 38.722,55.836 C38.761,56.428 38.795,57.071 38.795,57.734 C38.795,66.582 32.110,75.540 19.332,75.540 C14.065,75.540 9.113,73.825 5.389,70.712 C2.013,67.888 -0.004,64.170 -0.004,60.764 C-0.004,60.524 0.001,60.285 0.004,60.050 C0.009,59.834 0.012,59.620 0.012,59.411 C0.012,49.811 7.170,39.880 19.148,39.880 C22.340,39.880 25.582,40.615 28.407,41.959 C29.702,39.141 32.241,37.018 35.295,36.495 C35.898,36.392 36.508,36.339 37.111,36.339 C41.895,36.339 46.978,39.680 46.978,45.870 ZM19.332,73.290 C21.742,73.290 24.153,72.850 26.384,72.012 C26.385,71.799 26.388,71.584 26.392,71.369 C26.397,71.133 26.401,70.897 26.401,70.663 C26.401,67.696 25.315,67.492 23.513,67.153 C21.814,66.834 19.246,66.351 19.244,62.397 C18.944,62.447 18.638,62.481 18.320,62.481 C18.123,62.481 17.924,62.464 17.724,62.434 C17.181,65.536 15.096,66.213 13.401,66.757 C11.588,67.340 10.156,67.800 9.639,70.895 C12.273,72.341 15.534,73.290 19.332,73.290 ZM22.927,54.101 C22.927,52.806 22.286,51.417 21.942,51.036 C21.157,50.164 20.541,49.736 19.884,49.604 C19.654,49.559 19.422,49.536 19.193,49.536 C16.519,49.536 14.445,52.476 14.445,55.004 C14.445,58.146 16.778,60.231 18.320,60.231 C21.036,60.231 22.927,57.000 22.927,54.101 ZM27.701,44.123 C25.115,42.839 22.111,42.131 19.148,42.131 C8.580,42.131 2.265,50.917 2.265,59.411 C2.265,59.633 2.261,59.860 2.257,60.090 C2.253,60.313 2.249,60.538 2.249,60.764 C2.249,63.602 4.175,67.040 7.616,69.599 C8.550,65.959 10.933,65.186 12.711,64.615 C14.398,64.073 15.328,63.774 15.561,61.680 C15.564,61.647 15.584,61.621 15.590,61.589 C13.707,60.352 12.192,57.932 12.192,55.004 C12.192,51.360 15.186,47.285 19.193,47.285 C19.569,47.285 19.950,47.323 20.324,47.397 C21.807,47.694 22.862,48.693 23.617,49.530 C24.385,50.383 25.180,52.326 25.180,54.101 C25.180,56.992 23.769,60.020 21.470,61.519 C21.477,61.573 21.501,61.621 21.501,61.676 L21.497,62.393 C21.497,64.484 22.259,64.627 23.930,64.941 C25.811,65.295 28.654,65.830 28.654,70.663 C28.654,70.772 28.651,70.883 28.650,70.993 C33.214,68.517 36.543,64.063 36.543,57.734 C36.543,57.151 36.513,56.583 36.478,56.035 C36.443,56.035 36.411,56.039 36.376,56.039 C32.176,56.039 27.479,51.827 27.479,46.189 C27.479,45.484 27.561,44.794 27.701,44.123 ZM37.111,38.590 C36.636,38.590 36.153,38.631 35.675,38.713 C32.342,39.284 29.731,42.567 29.731,46.189 C29.731,50.469 33.303,53.788 36.376,53.788 C41.448,53.788 44.726,50.680 44.726,45.870 C44.726,41.142 40.802,38.590 37.111,38.590 ZM40.633,46.607 C39.931,46.772 39.221,46.873 38.513,46.943 C38.541,47.696 38.572,48.450 38.572,49.203 C38.572,49.825 38.067,50.328 37.445,50.328 C36.824,50.328 36.319,49.825 36.319,49.203 C36.319,48.505 36.289,47.798 36.264,47.093 C36.254,47.093 36.245,47.094 36.236,47.094 C35.416,47.134 34.568,47.176 33.748,47.267 C33.706,47.272 33.664,47.274 33.622,47.274 C33.056,47.274 32.569,46.848 32.504,46.273 C32.436,45.655 32.881,45.099 33.499,45.030 C34.388,44.931 35.271,44.888 36.126,44.847 C36.138,44.846 36.150,44.845 36.163,44.845 C36.130,44.283 36.101,43.718 36.066,43.164 C36.027,42.544 36.499,42.010 37.120,41.971 C37.759,41.931 38.275,42.404 38.314,43.023 C38.349,43.571 38.378,44.133 38.410,44.689 C38.992,44.628 39.563,44.547 40.117,44.417 C40.728,44.273 41.330,44.650 41.472,45.254 C41.614,45.859 41.239,46.465 40.633,46.607 ZM39.951,77.822 C41.161,77.639 42.355,77.546 43.501,77.546 C53.007,77.546 60.741,84.214 60.741,92.411 C60.741,103.701 52.192,110.689 44.272,110.689 C34.574,110.689 26.067,102.639 26.067,93.462 C26.067,85.870 32.166,79.000 39.951,77.822 ZM44.272,107.967 C50.881,107.967 58.016,102.019 58.016,92.411 C58.016,85.715 51.505,80.269 43.501,80.269 C42.492,80.269 41.434,80.351 40.359,80.513 C33.981,81.479 28.792,87.288 28.792,93.462 C28.792,101.053 36.171,107.967 44.272,107.967 ZM32.592,98.071 C31.616,98.071 30.543,97.000 30.543,96.024 C30.543,95.004 31.100,94.446 31.400,94.147 C31.876,93.672 32.697,93.631 33.216,94.048 C33.585,94.218 34.151,94.496 34.497,95.186 C34.632,95.454 34.702,95.745 34.702,96.044 C34.702,97.143 33.736,98.071 32.592,98.071 ZM33.120,95.483 C33.087,95.458 32.893,95.350 32.602,95.348 L33.268,96.014 C33.266,95.723 33.158,95.529 33.120,95.483 ZM42.046,84.390 C42.791,84.307 43.467,84.845 43.552,85.592 C43.873,88.488 43.985,91.116 44.102,93.899 C44.121,94.349 44.140,94.803 44.160,95.259 C44.228,95.255 44.294,95.252 44.362,95.248 C45.704,95.172 46.970,95.101 48.200,94.723 C48.924,94.500 49.682,94.906 49.903,95.624 C50.125,96.342 49.721,97.104 49.002,97.325 C47.456,97.801 45.961,97.885 44.515,97.966 C44.007,97.995 43.498,98.023 42.989,98.070 C42.948,98.074 42.906,98.076 42.864,98.076 C42.538,98.076 42.220,97.958 41.972,97.743 C41.691,97.500 41.522,97.153 41.503,96.782 C41.457,95.843 41.417,94.924 41.379,94.014 C41.264,91.279 41.155,88.696 40.843,85.893 C40.760,85.145 41.299,84.472 42.046,84.390 ZM44.967,102.579 C45.701,102.720 46.223,103.360 46.223,104.177 C46.223,105.428 45.248,106.407 44.003,106.407 C42.924,106.407 42.139,105.607 42.139,104.504 C42.139,103.843 42.442,103.221 43.065,102.600 C43.591,102.077 44.434,102.072 44.967,102.579 ZM53.361,92.998 C53.613,92.766 53.975,92.606 54.318,92.606 C55.524,92.606 56.367,93.448 56.367,94.653 C56.367,95.250 55.982,95.758 55.446,95.941 C55.230,96.142 54.813,96.507 54.180,96.507 C53.174,96.507 52.423,95.521 52.423,94.639 C52.423,93.777 53.031,93.273 53.291,93.058 L53.361,92.998 ZM55.004,94.653 L55.136,94.786 C55.144,94.739 55.148,94.690 55.148,94.639 C55.148,94.432 55.091,94.276 55.004,94.157 L55.004,94.653 ZM54.318,95.329 L54.318,94.653 L53.642,94.653 C53.643,94.949 54.021,95.328 54.318,95.329 ZM74.269,103.405 C74.787,103.276 75.327,103.210 75.873,103.210 C79.609,103.210 82.214,106.051 82.214,108.602 C82.214,111.999 78.313,114.866 75.863,114.866 C72.413,114.866 70.095,112.572 70.095,109.160 C70.095,106.385 71.811,104.018 74.269,103.405 ZM75.863,112.143 C76.972,112.143 79.489,110.328 79.489,108.602 C79.489,107.539 78.046,105.933 75.873,105.933 C75.549,105.933 75.232,105.971 74.930,106.046 C73.545,106.392 72.820,107.874 72.820,109.160 C72.820,110.056 73.116,112.143 75.863,112.143 ZM120.039,121.503 C120.653,121.473 121.266,121.444 121.877,121.417 C123.623,121.337 125.428,121.254 127.168,121.104 C127.504,121.080 127.836,121.189 128.081,121.420 C128.327,121.650 128.464,121.973 128.457,122.309 C128.452,122.527 128.451,122.744 128.451,122.960 C128.451,124.588 128.558,126.256 128.662,127.870 C128.737,129.031 128.815,130.232 128.853,131.426 C128.874,132.074 128.371,132.619 127.722,132.649 L125.075,132.775 C123.456,132.854 121.841,132.932 120.221,132.997 C120.205,132.998 120.189,132.998 120.173,132.998 C119.872,132.998 119.580,132.883 119.360,132.676 C119.128,132.458 118.993,132.155 118.986,131.837 C118.927,128.951 118.914,126.093 118.912,122.688 C118.912,122.056 119.408,121.535 120.039,121.503 ZM121.337,130.576 C122.545,130.524 123.751,130.465 124.959,130.407 L126.432,130.336 C126.393,129.561 126.343,128.782 126.294,128.022 C126.200,126.567 126.104,125.068 126.082,123.566 C124.711,123.661 123.331,123.724 121.986,123.785 C121.753,123.796 121.520,123.807 121.287,123.818 C121.290,126.260 121.303,128.434 121.337,130.576 ZM135.095,114.346 L142.859,114.157 C143.507,114.157 144.025,114.634 144.071,115.254 C144.346,118.942 144.445,122.663 144.540,126.261 C144.578,127.712 144.617,129.165 144.666,130.619 C144.689,131.269 144.183,131.815 143.534,131.844 L143.303,131.855 C141.719,131.926 140.080,132.000 138.456,132.000 C137.819,132.000 137.183,131.989 136.550,131.962 C135.952,131.937 135.466,131.470 135.417,130.874 C135.005,125.831 134.524,120.855 133.944,115.662 C133.908,115.332 134.011,115.001 134.230,114.751 C134.448,114.501 134.762,114.354 135.095,114.346 ZM137.696,129.623 C139.202,129.647 140.741,129.594 142.256,129.528 C142.224,128.459 142.195,127.391 142.167,126.324 C142.082,123.121 141.995,119.822 141.783,116.555 L136.445,116.685 C136.925,121.079 137.336,125.334 137.696,129.623 ZM150.688,118.698 C151.479,118.677 152.274,118.673 153.071,118.673 L154.897,118.676 C155.758,118.676 156.621,118.671 157.479,118.645 C158.096,118.626 158.628,119.087 158.694,119.704 C159.092,123.400 159.161,127.060 159.176,130.465 C159.179,131.108 158.666,131.637 158.021,131.655 C156.424,131.699 154.804,131.699 153.238,131.699 C153.236,131.699 151.474,131.701 151.469,131.701 C150.835,131.701 150.313,131.204 150.284,130.572 C150.193,128.661 150.037,126.708 149.886,124.820 C149.758,123.226 149.627,121.578 149.534,119.951 C149.516,119.630 149.628,119.316 149.846,119.080 C150.063,118.844 150.367,118.706 150.688,118.698 ZM152.252,124.630 C152.375,126.170 152.501,127.751 152.594,129.328 L153.195,129.327 C154.396,129.327 155.603,129.327 156.795,129.309 C156.771,126.647 156.696,123.851 156.441,121.039 C155.927,121.045 155.412,121.047 154.897,121.047 L153.071,121.044 C152.707,121.044 152.344,121.045 151.980,121.048 C152.062,122.248 152.158,123.455 152.252,124.630 ZM166.653,111.770 C168.908,111.394 171.199,111.183 173.414,110.980 C174.010,110.925 174.608,110.870 175.203,110.812 C175.838,110.756 176.402,111.195 176.493,111.823 C177.024,115.500 177.321,119.244 177.608,122.865 C177.761,124.798 177.918,126.796 178.111,128.758 C178.174,129.409 177.699,129.988 177.047,130.053 C174.518,130.305 171.179,130.606 167.749,130.692 C167.123,130.692 166.601,130.203 166.565,129.574 C166.485,128.154 166.400,126.734 166.316,125.314 C166.077,121.276 165.831,117.100 165.662,112.988 C165.638,112.391 166.063,111.869 166.653,111.770 ZM168.686,125.174 C168.747,126.211 168.808,127.247 168.869,128.284 C171.292,128.189 173.647,127.996 175.637,127.808 C175.491,126.212 175.365,124.610 175.241,123.052 C174.987,119.839 174.725,116.527 174.298,113.280 C174.076,113.300 173.854,113.321 173.631,113.341 C171.803,113.509 169.923,113.682 168.079,113.948 C168.244,117.698 168.468,121.493 168.686,125.174 Z"/>
</svg>