<svg 
 xmlns="http://www.w3.org/2000/svg"
 xmlns:xlink="http://www.w3.org/1999/xlink"
 width="234px" height="203px">
<defs>
<linearGradient id="PSgrad_0" x1="0%" x2="85.717%" y1="0%" y2="51.504%">
  <stop offset="0%" stop-color="rgb(50,194,241)" stop-opacity="1" />
  <stop offset="100%" stop-color="rgb(129,249,208)" stop-opacity="1" />
</linearGradient>

</defs>
<path fill-rule="evenodd"  opacity="0.302" fill="rgb(252, 143, 70)"
 d="M9.767,65.081 C7.463,59.452 8.405,51.995 13.515,48.692 C17.195,46.313 21.911,46.624 26.290,46.438 C30.670,46.251 35.658,45.037 37.619,41.120 C39.711,36.940 37.300,31.999 37.223,27.326 C37.105,20.154 42.863,13.853 49.616,11.419 C56.369,8.985 63.856,9.723 70.855,11.318 C78.278,13.010 85.821,15.646 93.318,14.320 C99.065,13.303 104.125,10.053 109.115,7.028 C114.106,4.003 119.440,1.063 125.271,0.787 C131.101,0.511 137.509,3.735 138.966,9.382 C139.478,11.367 139.352,13.464 139.746,15.476 C141.145,22.615 148.681,26.942 155.858,28.164 C163.035,29.387 170.466,28.478 177.607,29.898 C184.747,31.318 192.104,36.144 192.907,43.373 C193.305,46.958 192.024,50.519 191.966,54.125 C191.824,62.968 198.914,70.259 206.381,75.008 C213.849,79.757 222.363,83.247 228.261,89.842 C234.159,96.437 236.216,107.768 229.623,113.669 C223.847,118.838 214.040,117.735 208.853,123.494 C204.165,128.697 205.584,136.916 208.405,143.324 C211.226,149.732 215.248,156.057 214.950,163.051 C214.499,173.671 203.775,181.491 193.198,182.633 C182.621,183.775 172.213,179.996 162.156,176.530 C152.100,173.063 141.383,169.814 130.975,172.017 C114.370,175.533 103.476,191.666 87.937,198.492 C77.688,202.994 65.916,203.137 54.981,200.732 C50.758,199.804 46.637,198.517 42.597,196.989 C33.032,193.372 28.770,182.171 33.531,173.127 C34.137,171.974 34.560,170.755 34.692,169.431 C35.099,165.356 32.492,161.511 29.264,158.987 C26.035,156.463 22.174,154.900 18.670,152.775 C8.862,146.826 2.049,136.193 0.747,124.803 C-0.555,113.414 3.684,101.520 11.897,93.515 C15.538,89.965 21.919,85.576 20.555,79.649 C19.336,74.354 11.963,70.445 9.767,65.081 Z"/>
<path fill="url(#PSgrad_0)"
 d="M9.767,65.081 C7.463,59.452 8.405,51.995 13.515,48.692 C17.195,46.313 21.911,46.624 26.290,46.438 C30.670,46.251 35.658,45.037 37.619,41.120 C39.711,36.940 37.300,31.999 37.223,27.326 C37.105,20.154 42.863,13.853 49.616,11.419 C56.369,8.985 63.856,9.723 70.855,11.318 C78.278,13.010 85.821,15.646 93.318,14.320 C99.065,13.303 104.125,10.053 109.115,7.028 C114.106,4.003 119.440,1.063 125.271,0.787 C131.101,0.511 137.509,3.735 138.966,9.382 C139.478,11.367 139.352,13.464 139.746,15.476 C141.145,22.615 148.681,26.942 155.858,28.164 C163.035,29.387 170.466,28.478 177.607,29.898 C184.747,31.318 192.104,36.144 192.907,43.373 C193.305,46.958 192.024,50.519 191.966,54.125 C191.824,62.968 198.914,70.259 206.381,75.008 C213.849,79.757 222.363,83.247 228.261,89.842 C234.159,96.437 236.216,107.768 229.623,113.669 C223.847,118.838 214.040,117.735 208.853,123.494 C204.165,128.697 205.584,136.916 208.405,143.324 C211.226,149.732 215.248,156.057 214.950,163.051 C214.499,173.671 203.775,181.491 193.198,182.633 C182.621,183.775 172.213,179.996 162.156,176.530 C152.100,173.063 141.383,169.814 130.975,172.017 C114.370,175.533 103.476,191.666 87.937,198.492 C77.688,202.994 65.916,203.137 54.981,200.732 C50.758,199.804 46.637,198.517 42.597,196.989 C33.032,193.372 28.770,182.171 33.531,173.127 C34.137,171.974 34.560,170.755 34.692,169.431 C35.099,165.356 32.492,161.511 29.264,158.987 C26.035,156.463 22.174,154.900 18.670,152.775 C8.862,146.826 2.049,136.193 0.747,124.803 C-0.555,113.414 3.684,101.520 11.897,93.515 C15.538,89.965 21.919,85.576 20.555,79.649 C19.336,74.354 11.963,70.445 9.767,65.081 Z"/>
</svg>